<svg width="70" height="70" viewBox="0 0 70 70" fill="none" xmlns="http://www.w3.org/2000/svg">
<path d="M55.1621 30.0249H20.5985V20.5985C20.5985 12.7054 27.0197 6.28429 34.9127 6.28429C42.8058 6.28429 49.2269 12.7054 49.2269 20.5985C49.2269 21.1767 49.6962 21.6459 50.2743 21.6459C50.8525 21.6459 51.3217 21.1767 51.3217 20.5985C51.3217 11.5505 43.9607 4.18953 34.9127 4.18953C25.8647 4.18953 18.5037 11.5505 18.5037 20.5985V30.0249H14.6633C14.0852 30.0249 13.616 30.4942 13.616 31.0723V64.5885C13.616 65.1667 14.0852 65.6359 14.6633 65.6359H55.1621C55.7403 65.6359 56.2095 65.1667 56.2095 64.5885V31.0723C56.2095 30.4942 55.7403 30.0249 55.1621 30.0249ZM54.1147 63.5411H15.7107V32.1197H54.1147V63.5411Z" fill="#FF0000"/>
</svg>
