<svg width="70" height="70" viewBox="0 0 70 70" fill="none" xmlns="http://www.w3.org/2000/svg">
<path d="M48.68 5.8239H21.1484C19.1214 5.8239 17.4724 7.47287 17.4724 9.49995V60.3278C17.4724 62.3549 19.1214 64.0039 21.1484 64.0039H48.68C50.7071 64.0039 52.3561 62.3549 52.3561 60.3278V9.49995C52.3561 7.47287 50.7071 5.8239 48.68 5.8239ZM50.2974 60.3285C50.2974 61.2206 49.5714 61.9459 48.68 61.9459H21.1484C20.2564 61.9459 19.531 61.2199 19.531 60.3285V9.50063C19.531 8.60855 20.257 7.88323 21.1484 7.88323H48.68C49.5721 7.88323 50.2974 8.60924 50.2974 9.50063V60.3285Z" fill="#FF0000"/>
<path d="M34.9139 57.4162C35.6449 57.4162 36.2376 56.8236 36.2376 56.0925C36.2376 55.3614 35.6449 54.7688 34.9139 54.7688C34.1828 54.7688 33.5902 55.3614 33.5902 56.0925C33.5902 56.8236 34.1828 57.4162 34.9139 57.4162Z" fill="#FF0000"/>
</svg>
